<svg width="1080" height="1080" viewBox="0 0 1080 1080" fill="none" xmlns="http://www.w3.org/2000/svg">
<rect width="1080" height="1080" rx="540" fill="url(#paint0_linear_5_15)"/>
<path d="M236 708V391H539.84M236 708L539.84 391M236 708H539.84M539.84 391H859M539.84 708H859V391M539.84 708L859 391" stroke="white" stroke-width="32"/>
<rect x="843" y="348" width="32" height="32" fill="white"/>
<rect x="220" y="348" width="32" height="32" fill="white"/>
<rect x="844" y="293" width="31" height="31" rx="15.5" fill="white"/>
<rect x="205" y="262" width="62" height="62" rx="31" fill="white"/>
<rect x="228" y="268" width="39" height="39" rx="19.5" fill="#241D40"/>
<rect x="844" y="300" width="16" height="16" rx="8" fill="#241D40"/>
<path d="M604.8 805.7C600.467 805.7 596.5 804.7 592.9 802.7C589.367 800.7 586.533 797.7 584.4 793.7C582.333 789.633 581.3 784.5 581.3 778.3C581.3 772.033 582.3 766.9 584.3 762.9C586.367 758.9 589.167 755.933 592.7 754C596.233 752 600.267 751 604.8 751C610.067 751 614.7 752.133 618.7 754.4C622.767 756.667 625.967 759.833 628.3 763.9C630.7 767.967 631.9 772.767 631.9 778.3C631.9 783.833 630.7 788.667 628.3 792.8C625.967 796.867 622.767 800.033 618.7 802.3C614.7 804.567 610.067 805.7 604.8 805.7ZM575.2 824.4V751.6H587.1V764.2L586.7 778.4L587.7 792.6V824.4H575.2ZM603.4 795C606.4 795 609.067 794.333 611.4 793C613.8 791.667 615.7 789.733 617.1 787.2C618.5 784.667 619.2 781.7 619.2 778.3C619.2 774.833 618.5 771.867 617.1 769.4C615.7 766.867 613.8 764.933 611.4 763.6C609.067 762.267 606.4 761.6 603.4 761.6C600.4 761.6 597.7 762.267 595.3 763.6C592.9 764.933 591 766.867 589.6 769.4C588.2 771.867 587.5 774.833 587.5 778.3C587.5 781.7 588.2 784.667 589.6 787.2C591 789.733 592.9 791.667 595.3 793C597.7 794.333 600.4 795 603.4 795ZM675.971 805V794.2L675.271 791.9V773C675.271 769.333 674.171 766.5 671.971 764.5C669.771 762.433 666.438 761.4 661.971 761.4C658.971 761.4 656.004 761.867 653.071 762.8C650.204 763.733 647.771 765.033 645.771 766.7L640.871 757.6C643.738 755.4 647.138 753.767 651.071 752.7C655.071 751.567 659.204 751 663.471 751C671.204 751 677.171 752.867 681.371 756.6C685.638 760.267 687.771 765.967 687.771 773.7V805H675.971ZM659.171 805.7C655.171 805.7 651.671 805.033 648.671 803.7C645.671 802.3 643.338 800.4 641.671 798C640.071 795.533 639.271 792.767 639.271 789.7C639.271 786.7 639.971 784 641.371 781.6C642.838 779.2 645.204 777.3 648.471 775.9C651.738 774.5 656.071 773.8 661.471 773.8H676.971V782.1H662.371C658.104 782.1 655.238 782.8 653.771 784.2C652.304 785.533 651.571 787.2 651.571 789.2C651.571 791.467 652.471 793.267 654.271 794.6C656.071 795.933 658.571 796.6 661.771 796.6C664.838 796.6 667.571 795.9 669.971 794.5C672.438 793.1 674.204 791.033 675.271 788.3L677.371 795.8C676.171 798.933 674.004 801.367 670.871 803.1C667.804 804.833 663.904 805.7 659.171 805.7ZM733.413 805.7C729.08 805.7 725.113 804.7 721.513 802.7C717.98 800.7 715.147 797.7 713.013 793.7C710.947 789.633 709.913 784.5 709.913 778.3C709.913 772.033 710.913 766.9 712.913 762.9C714.98 758.9 717.78 755.933 721.313 754C724.847 752 728.88 751 733.413 751C738.68 751 743.313 752.133 747.313 754.4C751.38 756.667 754.58 759.833 756.913 763.9C759.313 767.967 760.513 772.767 760.513 778.3C760.513 783.833 759.313 788.667 756.913 792.8C754.58 796.867 751.38 800.033 747.313 802.3C743.313 804.567 738.68 805.7 733.413 805.7ZM703.813 824.4V751.6H715.713V764.2L715.313 778.4L716.313 792.6V824.4H703.813ZM732.013 795C735.013 795 737.68 794.333 740.013 793C742.413 791.667 744.313 789.733 745.713 787.2C747.113 784.667 747.813 781.7 747.813 778.3C747.813 774.833 747.113 771.867 745.713 769.4C744.313 766.867 742.413 764.933 740.013 763.6C737.68 762.267 735.013 761.6 732.013 761.6C729.013 761.6 726.313 762.267 723.913 763.6C721.513 764.933 719.613 766.867 718.213 769.4C716.813 771.867 716.113 774.833 716.113 778.3C716.113 781.7 716.813 784.667 718.213 787.2C719.613 789.733 721.513 791.667 723.913 793C726.313 794.333 729.013 795 732.013 795ZM797.468 805.7C791.535 805.7 786.335 804.533 781.868 802.2C777.468 799.8 774.035 796.533 771.568 792.4C769.168 788.267 767.968 783.567 767.968 778.3C767.968 772.967 769.135 768.267 771.468 764.2C773.868 760.067 777.135 756.833 781.268 754.5C785.468 752.167 790.235 751 795.568 751C800.768 751 805.401 752.133 809.468 754.4C813.535 756.667 816.735 759.867 819.068 764C821.401 768.133 822.568 773 822.568 778.6C822.568 779.133 822.535 779.733 822.468 780.4C822.468 781.067 822.435 781.7 822.368 782.3H777.868V774H815.768L810.868 776.6C810.935 773.533 810.301 770.833 808.968 768.5C807.635 766.167 805.801 764.333 803.468 763C801.201 761.667 798.568 761 795.568 761C792.501 761 789.801 761.667 787.468 763C785.201 764.333 783.401 766.2 782.068 768.6C780.801 770.933 780.168 773.7 780.168 776.9V778.9C780.168 782.1 780.901 784.933 782.368 787.4C783.835 789.867 785.901 791.767 788.568 793.1C791.235 794.433 794.301 795.1 797.768 795.1C800.768 795.1 803.468 794.633 805.868 793.7C808.268 792.767 810.401 791.3 812.268 789.3L818.968 797C816.568 799.8 813.535 801.967 809.868 803.5C806.268 804.967 802.135 805.7 797.468 805.7ZM834.575 805V751.6H846.475V766.3L845.075 762C846.675 758.4 849.175 755.667 852.575 753.8C856.042 751.933 860.342 751 865.475 751V762.9C864.942 762.767 864.442 762.7 863.975 762.7C863.508 762.633 863.042 762.6 862.575 762.6C857.842 762.6 854.075 764 851.275 766.8C848.475 769.533 847.075 773.633 847.075 779.1V805H834.575Z" fill="white"/>
<path d="M560.2 805.7C557.933 805.7 556 804.933 554.4 803.4C552.8 801.8 552 799.8 552 797.4C552 794.867 552.8 792.867 554.4 791.4C556 789.867 557.933 789.1 560.2 789.1C562.467 789.1 564.4 789.867 566 791.4C567.6 792.867 568.4 794.867 568.4 797.4C568.4 799.8 567.6 801.8 566 803.4C564.4 804.933 562.467 805.7 560.2 805.7Z" fill="white"/>
<g filter="url(#filter0_f_5_15)">
<path d="M256 391H510.782C519.556 391 524.076 401.495 518.048 407.871L258.734 682.109C256.978 683.965 256 686.424 256 688.979V698.5C256 704.023 260.477 708.5 266 708.5H534" stroke="#8A67EF" stroke-width="11"/>
</g>
<g filter="url(#filter1_f_5_15)">
<path d="M567 391H833.09C841.966 391 846.442 401.703 840.209 408.022L569.881 682.08C568.035 683.951 567 686.474 567 689.102V698.5C567 704.023 571.477 708.5 577 708.5H845" stroke="#8A67EF" stroke-width="11"/>
</g>
<defs>
<filter id="filter0_f_5_15" x="246.5" y="381.5" width="291.5" height="336.5" filterUnits="userSpaceOnUse" color-interpolation-filters="sRGB">
<feFlood flood-opacity="0" result="BackgroundImageFix"/>
<feBlend mode="normal" in="SourceGraphic" in2="BackgroundImageFix" result="shape"/>
<feGaussianBlur stdDeviation="2" result="effect1_foregroundBlur_5_15"/>
</filter>
<filter id="filter1_f_5_15" x="557.5" y="381.5" width="295.121" height="336.5" filterUnits="userSpaceOnUse" color-interpolation-filters="sRGB">
<feFlood flood-opacity="0" result="BackgroundImageFix"/>
<feBlend mode="normal" in="SourceGraphic" in2="BackgroundImageFix" result="shape"/>
<feGaussianBlur stdDeviation="2" result="effect1_foregroundBlur_5_15"/>
</filter>
<linearGradient id="paint0_linear_5_15" x1="540" y1="0" x2="540" y2="1080" gradientUnits="userSpaceOnUse">
<stop stop-color="#241D40"/>
<stop offset="1" stop-color="#5D4BA6"/>
</linearGradient>
</defs>
</svg>
